<svg width="357" height="531" viewBox="0 0 357 531" fill="none" xmlns="http://www.w3.org/2000/svg">
<line x1="5.79116" y1="-5.79116" x2="453.809" y2="-5.79116" transform="matrix(-0.185934 0.982562 0.982562 0.185934 220.875 79.4219)" stroke="#FBE19C" stroke-width="11.5823" stroke-linecap="round"/>
<path d="M215.776 127.292C183.663 135.536 127.406 131.656 127.406 84.3766C127.406 56.2602 149.489 38.0378 174.562 30.3556C178.554 25.0842 186.91 22.6335 194.726 21.7723C181.307 16.0095 166.614 16.7789 160.002 18.1846C172.75 8.29216 199.116 14.0627 210.705 18.1846V0H217.949L218.673 19.6393C220.122 17.3314 225.171 14.229 230.262 13.0929C236.782 11.6381 246.139 11.7695 248.371 14.5476C249.64 16.1271 251.32 18.1768 252.691 20.14C253.474 20.1786 254.21 20.2529 254.89 20.3667C263.582 21.8215 269.377 24.0036 277.345 35.6417C269.377 33.311 245.474 23.1543 239.679 29.6741C264.784 35.2674 296.177 50.3134 296.177 84.3766C296.177 130.201 244.025 132.141 215.776 127.292Z" fill="#EF5A32"/>
</svg>
