<svg width="394" height="539" viewBox="0 0 394 539" fill="none" xmlns="http://www.w3.org/2000/svg">
<line x1="216.971" y1="102.136" x2="188.027" y2="532.362" stroke="#FBE19C" stroke-width="11.5823" stroke-linecap="round"/>
<path d="M169.961 227.936L206.388 123.25C206.258 107.49 175.813 83.922 150.105 104.088C153.221 94.9333 123.334 65.1122 100.856 87.3204C115.926 59.9702 164.075 11.4017 236.118 35.9298C308.161 60.4579 318.078 128.796 314.031 159.899C310.367 145.293 292.185 122.6 264.782 143.131C257.816 126.712 238.181 106.675 211.502 120.277L174.34 229.427C165.76 258.725 122.942 264.578 127.748 213.565L131.97 215.002C128.633 257.086 161.81 251.879 169.961 227.936Z" fill="#FE7831"/>
</svg>
