<svg width="679" height="664" viewBox="0 0 679 664" fill="none" xmlns="http://www.w3.org/2000/svg">
<g filter="url(#filter0_di_10_18636)">
<path d="M460.65 242.448C565.633 429.923 618.283 672.999 618.283 672.999C618.283 672.999 397.879 672.436 332.635 673C267.406 673.563 72.2399 672.999 72.2399 672.999C72.2399 672.999 115.168 430.79 210.119 244.612C258.252 164.793 248.085 104.255 338.451 103.475C428.817 102.694 412.824 171.505 460.65 242.448Z" fill="#734640"/>
<path d="M224.33 466.811C172.321 564.811 112.776 590.679 76.6362 571.5C40.4968 552.321 9.4645 512.995 61.4727 414.995C128.116 319.499 216.923 235.46 253.063 254.639C289.202 273.818 276.338 368.81 224.33 466.811Z" fill="#734640"/>
<ellipse cx="287.103" cy="108.364" rx="14.4852" ry="17.7041" transform="rotate(-20.5713 287.103 108.364)" fill="#734640"/>
<ellipse cx="14.4852" cy="17.7041" rx="14.4852" ry="17.7041" transform="matrix(-0.942165 -0.33515 -0.33515 0.942165 403.248 95.709)" fill="#734640"/>
<path d="M503.136 429.5C565.636 508.5 521.136 521.5 567.636 560.5C637.636 560.5 678.666 511.473 615.181 412.11C537.154 316.176 437.949 233.433 403.472 255.461C368.995 277.489 439.651 330.137 503.136 429.5Z" fill="#734640"/>
<ellipse cx="403.046" cy="490.322" rx="8.5838" ry="13.4122" transform="rotate(-4.53457 403.046 490.322)" fill="#734640"/>
<ellipse cx="389.779" cy="487.296" rx="3.21893" ry="9.12029" transform="rotate(-65.8011 389.779 487.296)" fill="#734640"/>
<ellipse cx="391.129" cy="491.885" rx="3.21893" ry="9.12029" transform="rotate(-96.6775 391.129 491.885)" fill="#734640"/>
<path d="M515.089 520.959C479.757 529.849 513.494 522.583 479.757 529.849C465.536 529.972 463.113 528.383 461.98 521.418C462.997 514.971 466.464 513.332 480.686 513.209C515.089 520.959 478.004 513.254 515.089 520.959Z" fill="#734640"/>
<path d="M347.408 481.309C351.674 495.003 348.989 481.528 351.674 495.003C349.466 501.643 347.261 503.299 339.162 506.104C332.005 507.73 330.715 506.636 332.923 499.997C347.408 481.309 332.532 501.242 347.408 481.309Z" fill="#734640"/>
<path d="M378.104 468.088C382.37 481.783 379.684 468.308 382.37 481.783C380.162 488.422 377.957 490.079 369.857 492.884C362.7 494.509 361.41 493.416 363.619 486.776C378.104 468.088 363.227 488.021 378.104 468.088Z" fill="#734640"/>
<path d="M351.615 484.733C330.729 478.645 351.68 483.76 330.729 478.645C319.473 478.168 316.228 479.007 309.579 482.952C305.074 486.664 306.491 487.7 317.748 488.176C351.615 484.733 315.643 488.074 351.615 484.733Z" fill="#734640"/>
<path d="M366.384 189.273C366.431 194.639 353.872 201.624 340.504 203.974C327.098 201.855 314.421 195.088 314.374 189.723C314.328 184.357 318.414 176.377 339.36 178.333C359.966 176.601 366.338 183.908 366.384 189.273Z" fill="black"/>
</g>
<ellipse cx="314.136" cy="158" rx="8.5" ry="11" fill="white"/>
<ellipse cx="366.136" cy="158" rx="8.5" ry="11" fill="white"/>
<circle cx="314.136" cy="157.5" r="5.5" fill="black"/>
<circle cx="366.136" cy="157.5" r="5.5" fill="black"/>
<path d="M387.175 115.864C379.195 75.1382 368.628 7.43657 415.732 58.5325C413.814 39.2076 399.673 2.5768 358.457 10.653C317.24 18.7291 313.819 66.2743 317.26 89.0374L324.908 128.065L387.175 115.864Z" fill="#FFDC3C"/>
<path d="M324.908 128.065L317.26 89.0374C313.158 68.1022 360.871 84.6114 317.708 88.993C274.545 93.3745 312.852 68.5453 317.708 88.993C314.292 74.6087 326.68 68.0436 317.708 88.993L324.908 128.065Z" fill="#FFDC3C"/>
<path d="M325.586 129.46L259.836 142.344C256.176 115.344 247.753 89.3449 243.999 79.7204C234.196 58.8152 218.49 83.0203 211.863 97.736C203.819 48.3614 233.916 33.4628 249.97 32.1853C305.155 22.5947 323.374 93.0393 325.586 129.46Z" fill="#EF5A32"/>
<circle cx="418.01" cy="65.494" r="7.5" transform="rotate(-11.0864 418.01 65.494)" fill="#EF5A32"/>
<circle cx="212.911" cy="105.683" r="7.5" transform="rotate(-11.0864 212.911 105.683)" fill="#FFDC3C"/>
<path d="M387.997 117.74L384.299 98.8701L366.571 79.1398L357.307 102.612L340.86 84.1778L332.091 107.553L315.148 89.2158L306.874 112.494L289.437 94.2538L281.163 117.532L264.221 99.1949L255.744 124.06L259.441 142.93L387.997 117.74Z" fill="#D0D0D0"/>
<path d="M363.636 191.5C363.636 203.926 353.562 214 341.136 214C328.709 214 318.636 203.926 318.636 191.5C318.636 179.074 328.709 169 341.136 169C353.562 169 363.636 179.074 363.636 191.5Z" fill="#C70005"/>
<path d="M385.64 215.154C339.64 240.754 309.64 223.154 294.14 215.154C269.14 202.251 234.719 212.154 269.14 242.654C320.866 288.487 391.14 260.654 410.64 242.654C427.275 227.299 442.242 183.654 385.64 215.154Z" fill="#C70005"/>
<path d="M380.102 223.598C340.087 242.978 313.99 229.654 300.506 223.598C278.758 213.83 248.815 221.327 278.758 244.416C323.755 279.113 384.887 258.042 401.85 244.416C416.321 232.792 429.341 199.752 380.102 223.598Z" fill="white"/>
<path d="M264.14 221.654C289.14 243.988 354.34 273.754 415.14 214.154" stroke="#C70005" stroke-width="4"/>
<path d="M315.64 238.154L313.475 245.654H317.805L315.64 238.154Z" fill="#C70005"/>
<path d="M381.135 208.93C365.535 199.73 344.135 202.43 338.635 208.93C332.635 202.43 316.635 201.43 304.135 208.93C290.94 216.848 261.864 219.93 249.635 208.93C259.635 229.43 282.135 229.93 299.135 231.93C316.135 233.93 338.635 225.43 338.635 225.43C338.635 225.43 348.435 232.33 387.635 231.93C426.835 231.53 433.969 216.43 432.635 208.93C426.135 224.93 400.635 220.43 381.135 208.93Z" fill="#FF9E00"/>
<path d="M498.014 545.288C366.441 587.666 229.622 562.945 177.659 545.288V629.539C321.339 674.338 451.096 648.205 498.014 629.539V545.288Z" fill="#C70005" stroke="#C70005" stroke-width="5.04495"/>
<path d="M192.289 558.909L206.919 640.133C206.919 640.133 197.683 638.375 191.28 636.601C184.877 634.828 175.136 631.052 175.136 631.052L192.289 558.909Z" fill="#900105"/>
<path d="M483.887 559.413L478.842 638.619C478.842 638.619 484.896 636.894 490.446 635.087C495.995 633.281 500.536 631.051 500.536 631.051L483.887 559.413Z" fill="#900105"/>
<path d="M227.604 570.513L243.748 648.205C243.748 648.205 231.362 645.597 224.072 644.169C216.783 642.741 206.415 640.133 206.415 640.133L227.604 570.513Z" fill="#900105"/>
<path d="M454.626 566.98L442.518 647.195C442.518 647.195 452.104 645.689 460.68 643.664C469.256 641.639 478.842 638.619 478.842 638.619L454.626 566.98Z" fill="#900105"/>
<path d="M270.486 574.549L287.638 653.755C287.638 653.755 274.208 652.82 265.441 651.737C256.673 650.653 242.738 648.205 242.738 648.205L270.486 574.549Z" fill="#900105"/>
<path d="M415.276 572.025L396.609 653.754C396.609 653.754 410.852 652.61 419.816 651.231C428.78 649.852 443.023 647.195 443.023 647.195L415.276 572.025Z" fill="#900105"/>
<path d="M315.89 576.566L342.628 656.781C342.628 656.781 324.609 657.274 313.872 656.781C303.135 656.289 287.134 653.754 287.134 653.754L315.89 576.566Z" fill="#900105"/>
<path d="M368.358 575.558L397.618 653.754C397.618 653.754 380.301 655.883 369.367 656.277C358.432 656.671 342.124 656.781 342.124 656.781L368.358 575.558Z" fill="#900105"/>
<ellipse cx="338.088" cy="544.783" rx="161.943" ry="31.7832" fill="#F9DB54"/>
<path d="M475 272L389.636 518.5H408.636L503.636 301L475 272Z" fill="#FFF1B0"/>
<path d="M197 271.5L292.136 518.5H265.636L166 296.5L197 271.5Z" fill="#FFF1B0"/>
<path d="M475 272L389.636 518.5H408.636L503.636 301L475 272Z" stroke="#FFF1B0" stroke-width="5"/>
<path d="M197 271.5L292.136 518.5H265.636L166 296.5L197 271.5Z" stroke="#FFF1B0" stroke-width="5"/>
<line x1="441.036" y1="514.882" x2="639.064" y2="497.15" stroke="#F9DB54" stroke-width="9" stroke-linecap="round"/>
<ellipse cx="432.667" cy="515.57" rx="24" ry="25" transform="rotate(-45.6284 432.667 515.57)" fill="#FF9E00"/>
<line x1="4.5" y1="-4.5" x2="203.32" y2="-4.5" transform="matrix(-0.859596 0.510974 0.510974 0.859596 258.277 452.396)" stroke="#F9DB54" stroke-width="9" stroke-linecap="round"/>
<ellipse cx="24" cy="25" rx="24" ry="25" transform="matrix(-0.985459 -0.169914 -0.169914 0.985459 287.195 425.925)" fill="#FF9E00"/>
<path d="M187.636 468L130.136 497C133.303 512.5 147.436 539.3 178.636 522.5C209.836 505.7 197.636 479.167 187.636 468Z" fill="#6F443F"/>
<path d="M551.5 474L494 503C497.167 518.5 511.3 545.3 542.5 528.5C573.7 511.7 561.5 485.167 551.5 474Z" fill="#6F443F"/>
<defs>
<filter id="filter0_di_10_18636" x="29.8799" y="72.1572" width="620.792" height="609.093" filterUnits="userSpaceOnUse" color-interpolation-filters="sRGB">
<feFlood flood-opacity="0" result="BackgroundImageFix"/>
<feColorMatrix in="SourceAlpha" type="matrix" values="0 0 0 0 0 0 0 0 0 0 0 0 0 0 0 0 0 0 127 0" result="hardAlpha"/>
<feOffset dy="4"/>
<feGaussianBlur stdDeviation="2"/>
<feComposite in2="hardAlpha" operator="out"/>
<feColorMatrix type="matrix" values="0 0 0 0 0 0 0 0 0 0 0 0 0 0 0 0 0 0 0.25 0"/>
<feBlend mode="normal" in2="BackgroundImageFix" result="effect1_dropShadow_10_18636"/>
<feBlend mode="normal" in="SourceGraphic" in2="effect1_dropShadow_10_18636" result="shape"/>
<feColorMatrix in="SourceAlpha" type="matrix" values="0 0 0 0 0 0 0 0 0 0 0 0 0 0 0 0 0 0 127 0" result="hardAlpha"/>
<feOffset dy="-18"/>
<feGaussianBlur stdDeviation="125"/>
<feComposite in2="hardAlpha" operator="arithmetic" k2="-1" k3="1"/>
<feColorMatrix type="matrix" values="0 0 0 0 0.407843 0 0 0 0 0.254902 0 0 0 0 0.235294 0 0 0 1 0"/>
<feBlend mode="normal" in2="shape" result="effect2_innerShadow_10_18636"/>
</filter>
</defs>
</svg>
