<svg width="679" height="664" viewBox="0 0 679 664" fill="none" xmlns="http://www.w3.org/2000/svg">
<g clip-path="url(#clip0_325_47)">
<g filter="url(#filter0_di_325_47)">
<path d="M461.648 235.448C566.631 422.923 619.282 665.999 619.282 665.999C619.282 665.999 398.877 665.436 333.634 666C268.405 666.563 73.2385 665.999 73.2385 665.999C73.2385 665.999 116.166 423.79 211.118 237.612C259.251 157.793 249.083 97.2554 339.449 96.4749C429.816 95.6944 413.823 164.505 461.648 235.448Z" fill="#734640"/>
<path d="M225.329 459.81C173.32 557.81 113.775 583.678 77.6353 564.499C41.4959 545.32 10.4635 505.994 62.4717 407.994C129.115 312.498 217.922 228.459 254.062 247.638C290.201 266.817 277.337 361.809 225.329 459.81Z" fill="#734640"/>
<ellipse cx="288.103" cy="101.364" rx="14.4852" ry="17.7041" transform="rotate(-20.5713 288.103 101.364)" fill="#734640"/>
<ellipse cx="14.4852" cy="17.7041" rx="14.4852" ry="17.7041" transform="matrix(-0.942165 -0.33515 -0.33515 0.942165 404.246 88.709)" fill="#734640"/>
<path d="M504.135 422.5C566.635 501.5 522.135 514.5 568.635 553.5C638.635 553.5 679.665 504.473 616.181 405.11C538.154 309.176 438.948 226.433 404.471 248.461C369.994 270.489 440.651 323.137 504.135 422.5Z" fill="#734640"/>
<ellipse cx="404.047" cy="483.322" rx="8.5838" ry="13.4122" transform="rotate(-4.53457 404.047 483.322)" fill="#734640"/>
<ellipse cx="390.779" cy="480.297" rx="3.21893" ry="9.12029" transform="rotate(-65.8011 390.779 480.297)" fill="#734640"/>
<ellipse cx="392.129" cy="484.885" rx="3.21893" ry="9.12029" transform="rotate(-96.6775 392.129 484.885)" fill="#734640"/>
<path d="M516.089 513.959C480.757 522.849 514.494 515.583 480.757 522.849C466.536 522.972 464.113 521.383 462.98 514.418C463.997 507.971 467.464 506.332 481.686 506.209C516.089 513.959 479.004 506.254 516.089 513.959Z" fill="#734640"/>
<path d="M348.408 474.31C352.674 488.004 349.989 474.529 352.674 488.004C350.466 494.644 348.261 496.3 340.162 499.105C333.005 500.731 331.715 499.637 333.923 492.998C348.408 474.31 333.532 494.243 348.408 474.31Z" fill="#734640"/>
<path d="M379.104 461.089C383.37 474.784 380.684 461.309 383.37 474.784C381.162 481.423 378.957 483.08 370.857 485.885C363.7 487.51 362.41 486.417 364.619 479.777C379.104 461.089 364.227 481.022 379.104 461.089Z" fill="#734640"/>
<path d="M352.615 477.733C331.729 471.645 352.68 476.76 331.729 471.645C320.473 471.168 317.228 472.007 310.579 475.952C306.074 479.664 307.491 480.7 318.748 481.176C352.615 477.733 316.643 481.074 352.615 477.733Z" fill="#734640"/>
<path d="M367.383 182.273C367.429 187.639 354.871 194.624 341.503 196.974C328.097 194.855 315.419 188.088 315.373 182.723C315.327 177.357 319.413 169.377 340.358 171.333C360.964 169.601 367.337 176.908 367.383 182.273Z" fill="black"/>
</g>
<ellipse cx="315.137" cy="151" rx="8.5" ry="11" fill="white"/>
<ellipse cx="367.137" cy="151" rx="8.5" ry="11" fill="white"/>
<circle cx="315.137" cy="150.5" r="5.5" fill="black"/>
<circle cx="367.137" cy="150.5" r="5.5" fill="black"/>
<path d="M388.174 108.862C380.194 68.1362 369.628 0.434614 416.732 51.5305C414.813 32.2056 400.672 -4.42515 359.456 3.65101C318.24 11.7272 314.818 59.2724 318.26 82.0354L325.907 121.063L388.174 108.862Z" fill="#FFDC3C"/>
<path d="M325.907 121.063L318.26 82.0354C314.158 61.1002 361.87 77.6095 318.707 81.991C313.851 61.5433 275.544 86.3726 318.707 81.991C315.291 67.6068 327.68 61.0417 318.707 81.991L325.907 121.063Z" fill="#FFDC3C"/>
<path d="M326.585 122.458L260.835 135.342C257.175 108.342 248.752 82.3429 244.998 72.7184C235.195 51.8133 219.489 76.0184 212.862 90.7341C204.818 41.3595 234.915 26.4608 250.969 25.1833C306.154 15.5927 324.373 86.0373 326.585 122.458Z" fill="#EF5A32"/>
<circle cx="419.009" cy="58.494" r="7.5" transform="rotate(-11.0864 419.009 58.494)" fill="#EF5A32"/>
<circle cx="213.912" cy="98.6815" r="7.5" transform="rotate(-11.0864 213.912 98.6815)" fill="#FFDC3C"/>
<path d="M388.995 110.739L385.297 91.8691L367.569 72.1388L358.305 95.6111L341.858 77.1768L333.089 100.552L316.146 82.2148L307.872 105.493L290.435 87.2528L282.161 110.531L265.219 92.1939L256.742 117.059L260.439 135.929L388.995 110.739Z" fill="#D0D0D0"/>
<path d="M364.637 184.5C364.637 196.926 354.563 207 342.137 207C329.71 207 319.637 196.926 319.637 184.5C319.637 172.074 329.71 162 342.137 162C354.563 162 364.637 172.074 364.637 184.5Z" fill="#C70005"/>
<path d="M386.642 208.154C340.642 233.754 310.642 216.154 295.142 208.154C270.142 195.251 235.721 205.154 270.142 235.654C321.868 281.487 392.142 253.654 411.642 235.654C428.277 220.299 443.243 176.654 386.642 208.154Z" fill="#C70005"/>
<path d="M381.103 216.598C341.087 235.978 314.99 222.654 301.507 216.598C279.759 206.83 249.816 214.327 279.759 237.416C324.755 272.113 385.888 251.042 402.851 237.416C417.322 225.792 430.341 192.752 381.103 216.598Z" fill="white"/>
<path d="M265.141 214.654C290.141 236.988 355.341 266.754 416.141 207.154" stroke="#C70005" stroke-width="4"/>
<path d="M316.641 231.154L314.476 238.654H318.806L316.641 231.154Z" fill="#C70005"/>
<path d="M382.137 201.93C366.537 192.73 345.137 195.43 339.637 201.93C333.637 195.43 317.637 194.43 305.137 201.93C291.941 209.848 262.865 212.93 250.637 201.93C260.637 222.43 283.137 222.93 300.137 224.93C317.137 226.93 339.637 218.43 339.637 218.43C339.637 218.43 349.437 225.33 388.637 224.93C427.837 224.53 434.97 209.43 433.637 201.93C427.137 217.93 401.637 213.43 382.137 201.93Z" fill="#FF9E00"/>
<path d="M499.015 538.287C367.442 580.665 230.623 555.944 178.66 538.287V622.538C322.34 667.337 452.096 641.204 499.015 622.538V538.287Z" fill="#C70005" stroke="#C70005" stroke-width="5.04495"/>
<path d="M193.29 551.908L207.92 633.132C207.92 633.132 198.684 631.374 192.281 629.6C185.877 627.827 176.137 624.051 176.137 624.051L193.29 551.908Z" fill="#900105"/>
<path d="M484.887 552.414L479.842 631.62C479.842 631.62 485.896 629.895 491.445 628.088C496.995 626.282 501.535 624.052 501.535 624.052L484.887 552.414Z" fill="#900105"/>
<path d="M228.603 563.512L244.747 641.204C244.747 641.204 232.361 638.596 225.071 637.168C217.782 635.74 207.414 633.132 207.414 633.132L228.603 563.512Z" fill="#900105"/>
<path d="M455.628 559.98L443.52 640.195C443.52 640.195 453.106 638.689 461.682 636.664C470.258 634.639 479.844 631.619 479.844 631.619L455.628 559.98Z" fill="#900105"/>
<path d="M271.486 567.549L288.638 646.755C288.638 646.755 275.208 645.82 266.441 644.737C257.673 643.653 243.738 641.205 243.738 641.205L271.486 567.549Z" fill="#900105"/>
<path d="M416.276 565.025L397.61 646.754C397.61 646.754 411.852 645.61 420.817 644.231C429.781 642.852 444.023 640.195 444.023 640.195L416.276 565.025Z" fill="#900105"/>
<path d="M316.889 569.566L343.627 649.781C343.627 649.781 325.609 650.274 314.871 649.781C304.134 649.289 288.133 646.754 288.133 646.754L316.889 569.566Z" fill="#900105"/>
<path d="M369.359 568.557L398.619 646.753C398.619 646.753 381.302 648.882 370.368 649.276C359.433 649.67 343.125 649.78 343.125 649.78L369.359 568.557Z" fill="#900105"/>
<ellipse cx="339.087" cy="537.783" rx="161.943" ry="31.7832" fill="#F9DB54"/>
<path d="M476 265L390.636 511.5H409.636L504.636 294L476 265Z" fill="#FFF1B0"/>
<path d="M198 264.5L293.136 511.5H266.636L167 289.5L198 264.5Z" fill="#FFF1B0"/>
<path d="M476 265L390.636 511.5H409.636L504.636 294L476 265Z" stroke="#FFF1B0" stroke-width="5"/>
<path d="M198 264.5L293.136 511.5H266.636L167 289.5L198 264.5Z" stroke="#FFF1B0" stroke-width="5"/>
<line x1="442.034" y1="507.882" x2="640.061" y2="490.15" stroke="#F9DB54" stroke-width="9" stroke-linecap="round"/>
<ellipse cx="433.666" cy="508.569" rx="24" ry="25" transform="rotate(-45.6284 433.666 508.569)" fill="#FF9E00"/>
<line x1="4.5" y1="-4.5" x2="203.32" y2="-4.5" transform="matrix(-0.859596 0.510974 0.510974 0.859596 259.277 445.395)" stroke="#F9DB54" stroke-width="9" stroke-linecap="round"/>
<ellipse cx="24" cy="25" rx="24" ry="25" transform="matrix(-0.985459 -0.169914 -0.169914 0.985459 288.195 418.924)" fill="#FF9E00"/>
<path d="M188.637 461L131.137 490C134.303 505.5 148.437 532.3 179.637 515.5C210.837 498.7 198.637 472.167 188.637 461Z" fill="#6F443F"/>
<path d="M552.5 467L495 496C498.167 511.5 512.3 538.3 543.5 521.5C574.7 504.7 562.5 478.167 552.5 467Z" fill="#6F443F"/>
</g>
<defs>
<filter id="filter0_di_325_47" x="30.8789" y="65.1582" width="620.793" height="609.092" filterUnits="userSpaceOnUse" color-interpolation-filters="sRGB">
<feFlood flood-opacity="0" result="BackgroundImageFix"/>
<feColorMatrix in="SourceAlpha" type="matrix" values="0 0 0 0 0 0 0 0 0 0 0 0 0 0 0 0 0 0 127 0" result="hardAlpha"/>
<feOffset dy="4"/>
<feGaussianBlur stdDeviation="2"/>
<feComposite in2="hardAlpha" operator="out"/>
<feColorMatrix type="matrix" values="0 0 0 0 0 0 0 0 0 0 0 0 0 0 0 0 0 0 0.25 0"/>
<feBlend mode="normal" in2="BackgroundImageFix" result="effect1_dropShadow_325_47"/>
<feBlend mode="normal" in="SourceGraphic" in2="effect1_dropShadow_325_47" result="shape"/>
<feColorMatrix in="SourceAlpha" type="matrix" values="0 0 0 0 0 0 0 0 0 0 0 0 0 0 0 0 0 0 127 0" result="hardAlpha"/>
<feOffset dy="-18"/>
<feGaussianBlur stdDeviation="125"/>
<feComposite in2="hardAlpha" operator="arithmetic" k2="-1" k3="1"/>
<feColorMatrix type="matrix" values="0 0 0 0 0.407843 0 0 0 0 0.254902 0 0 0 0 0.235294 0 0 0 1 0"/>
<feBlend mode="normal" in2="shape" result="effect2_innerShadow_325_47"/>
</filter>
<clipPath id="clip0_325_47">
<rect width="679" height="664" fill="white"/>
</clipPath>
</defs>
</svg>
