<svg width="1084" height="883" viewBox="0 0 1084 883" fill="none" xmlns="http://www.w3.org/2000/svg">
<g filter="url(#filter0_di_133_146)">
<path d="M710.192 231.952C865.841 509.904 943.901 870.29 943.901 870.29C943.901 870.29 617.128 869.455 520.397 870.291C423.688 871.126 134.333 870.29 134.333 870.29C134.333 870.29 197.978 511.189 338.754 235.16C410.116 116.82 395.042 27.0665 529.019 25.9093C662.997 24.7522 639.286 126.772 710.192 231.952Z" fill="#734640"/>
<path d="M359.819 564.592C282.711 709.888 176.767 804.623 123.187 776.188C69.6064 747.753 41.2585 633.066 118.366 487.77C217.172 346.187 348.838 221.59 402.419 250.025C455.999 278.46 436.927 419.296 359.819 564.592Z" fill="#734640"/>
<ellipse cx="452.888" cy="33.1574" rx="21.4758" ry="26.2482" transform="rotate(-20.5713 452.888 33.1574)" fill="#734640"/>
<ellipse cx="21.4758" cy="26.2482" rx="21.4758" ry="26.2482" transform="matrix(-0.942165 -0.33515 -0.33515 0.942165 625.086 14.3955)" fill="#734640"/>
<path d="M703.286 577.117C797.408 724.434 915.147 817.382 966.263 784.723C1017.38 752.065 1033.42 630.809 939.298 483.493C823.615 341.261 676.532 218.586 625.416 251.244C574.3 283.903 609.164 429.801 703.286 577.117Z" fill="#734640"/>
<ellipse cx="624.786" cy="599.45" rx="12.7264" ry="19.885" transform="rotate(-4.53457 624.786 599.45)" fill="#734640"/>
<ellipse cx="605.118" cy="594.963" rx="4.7724" ry="13.5218" transform="rotate(-65.8011 605.118 594.963)" fill="#734640"/>
<ellipse cx="607.117" cy="601.768" rx="4.7724" ry="13.5218" transform="rotate(-96.6775 607.117 601.768)" fill="#734640"/>
<path d="M790.903 644.874C738.519 658.053 788.538 647.28 738.519 658.053C717.434 658.235 713.842 655.88 712.162 645.554C713.67 635.995 718.811 633.565 739.896 633.383C790.903 644.874 735.92 633.45 790.903 644.874Z" fill="#734640"/>
<path d="M542.298 586.088C548.623 606.391 544.642 586.413 548.623 606.391C545.349 616.235 542.08 618.691 530.071 622.85C519.461 625.26 517.548 623.639 520.822 613.795C542.298 586.088 520.242 615.64 542.298 586.088Z" fill="#734640"/>
<path d="M587.806 566.486C594.131 586.79 590.15 566.812 594.131 586.79C590.857 596.634 587.588 599.09 575.579 603.248C564.969 605.659 563.056 604.037 566.33 594.193C587.806 566.486 565.75 596.039 587.806 566.486Z" fill="#734640"/>
<path d="M548.533 591.165C517.569 582.138 548.63 589.722 517.569 582.138C500.88 581.431 496.069 582.674 486.211 588.524C479.533 594.027 481.633 595.562 498.322 596.269C548.533 591.165 495.202 596.117 548.533 591.165Z" fill="#734640"/>
<path d="M570.43 153.114C570.498 161.069 551.879 171.424 532.06 174.909C512.183 171.767 493.388 161.735 493.32 153.78C493.251 145.825 499.309 133.993 530.363 136.894C560.913 134.326 570.361 145.159 570.43 153.114Z" fill="black"/>
</g>
<ellipse cx="492.965" cy="106.748" rx="12.6022" ry="16.3087" fill="white"/>
<ellipse cx="570.063" cy="106.748" rx="12.6022" ry="16.3087" fill="white"/>
<circle id="left-pupil" cx="492.967" cy="106.007" r="8.15434" fill="black"/>
<circle id="right-pupil" cx="570.065" cy="106.007" r="8.15434" fill="black"/>
<defs>
<filter id="filter0_di_133_146" x="65.0696" y="-20.5219" width="948.181" height="903.045" filterUnits="userSpaceOnUse" color-interpolation-filters="sRGB">
<feFlood flood-opacity="0" result="BackgroundImageFix"/>
<feColorMatrix in="SourceAlpha" type="matrix" values="0 0 0 0 0 0 0 0 0 0 0 0 0 0 0 0 0 0 127 0" result="hardAlpha"/>
<feOffset dy="5.93043"/>
<feGaussianBlur stdDeviation="2.96521"/>
<feComposite in2="hardAlpha" operator="out"/>
<feColorMatrix type="matrix" values="0 0 0 0 0 0 0 0 0 0 0 0 0 0 0 0 0 0 0.25 0"/>
<feBlend mode="normal" in2="BackgroundImageFix" result="effect1_dropShadow_133_146"/>
<feBlend mode="normal" in="SourceGraphic" in2="effect1_dropShadow_133_146" result="shape"/>
<feColorMatrix in="SourceAlpha" type="matrix" values="0 0 0 0 0 0 0 0 0 0 0 0 0 0 0 0 0 0 127 0" result="hardAlpha"/>
<feOffset dy="-26.6869"/>
<feGaussianBlur stdDeviation="185.326"/>
<feComposite in2="hardAlpha" operator="arithmetic" k2="-1" k3="1"/>
<feColorMatrix type="matrix" values="0 0 0 0 0.407843 0 0 0 0 0.254902 0 0 0 0 0.235294 0 0 0 1 0"/>
<feBlend mode="normal" in2="shape" result="effect2_innerShadow_133_146"/>
</filter>
</defs>
</svg>
