<svg width="224" height="111" viewBox="0 0 224 111" fill="none" xmlns="http://www.w3.org/2000/svg">
<path d="M176.554 108.77C176.554 67.2695 179.203 -1.20049 215.603 57.9995C217.436 38.6663 210.603 0 168.603 0C126.603 0 114.103 46 113.103 69V108.77H176.554Z" fill="#FFDC3C"/>
<path d="M113.103 108.77V69C113.103 47.6667 156.751 73.0425 113.551 69.0425C112.717 48.0426 70.3506 65.0425 113.551 69.0425C112.964 54.2698 126.384 50.2094 113.551 69.0425L113.103 108.77Z" fill="#FFDC3C"/>
<path d="M113.5 110.27H46.5C48.1 83.0698 44.8333 55.9363 43 45.7695C37.4 23.3695 17.3333 44.1029 8 57.2697C9.6 7.26966 42 -1.56368 58 0.269658C114 1.46966 118.333 74.103 113.5 110.27Z" fill="#EF5A32"/>
<circle cx="216.5" cy="65.2695" r="7.5" fill="#EF5A32"/>
<circle cx="7.5" cy="65.2695" r="7.5" fill="#FFDC3C"/>
<path d="M177 110.77V91.5406L163.396 68.7695L149.792 90.0225L137.196 68.7695L124.096 90.0225L110.996 68.7695L98.4 90.0225L84.7962 68.7695L72.2 90.0225L59.1 68.7695L46 91.5406V110.77H177Z" fill="#D0D0D0"/>
</svg>
