<svg width="330" height="347" viewBox="0 0 330 347" fill="none" xmlns="http://www.w3.org/2000/svg">
<line x1="81.6987" y1="64.0601" x2="324.758" y2="339.53" stroke="#FBE19C" stroke-width="9.49742" stroke-linecap="round"/>
<path d="M65.9245 104.378C92.2564 111.138 138.387 107.957 138.387 69.1881C138.387 46.1329 120.279 31.1906 99.7195 24.8914C96.4457 20.5688 89.5939 18.5593 83.185 17.8531C94.1884 13.1276 106.237 13.7586 111.659 14.9112C101.205 6.7995 79.5854 11.5313 70.0822 14.9112V0H64.1427L63.5487 16.1041C62.3608 14.2116 58.2201 11.6676 54.0455 10.7361C48.6999 9.54316 41.0267 9.65091 39.1967 11.929C38.1562 13.2241 36.7782 14.9048 35.654 16.5146C35.0119 16.5463 34.4087 16.6072 33.8511 16.7005C26.7237 17.8934 21.972 19.6828 15.4386 29.2259C21.972 27.3148 41.5725 18.9864 46.3241 24.3325C25.738 28.919 -0.00419617 41.2566 -0.00419617 69.1881C-0.00419617 106.764 42.7604 108.355 65.9245 104.378Z" fill="#EF5A32"/>
</svg>
