<svg width="448" height="760" viewBox="0 0 448 760" fill="none" xmlns="http://www.w3.org/2000/svg">
<g clip-path="url(#clip0_222_100)">
<line x1="391.65" y1="143.446" x2="14.4458" y2="741.998" stroke="#FBE19C" stroke-width="20.9492" stroke-linecap="round"/>
<path fill-rule="evenodd" clip-rule="evenodd" d="M440.41 10V218.756L297.083 178.731C296.183 182.081 295.52 184.883 294.961 187.247C292.795 196.402 292.182 198.996 285.335 201.491C279.069 201.491 247.628 194.733 238.342 190.503C229.727 186.579 232.599 170.099 236.776 163.036L202.315 152.833L150.623 173.238V92.4037L202.315 116.732L440.41 10ZM267.321 170.099C238.02 163.82 236.776 181.871 261.055 188.149C288.94 195.36 296.622 176.377 267.321 170.099Z" fill="#F9DB54"/>
</g>
<defs>
<clipPath id="clip0_222_100">
<rect width="448" height="760" fill="white"/>
</clipPath>
</defs>
</svg>
