<svg width="275" height="374" viewBox="0 0 275 374" fill="none" xmlns="http://www.w3.org/2000/svg">
<line x1="4.18728" y1="-4.18728" x2="328.125" y2="-4.18728" transform="matrix(-0.511603 0.859222 0.859222 0.511603 176.012 87.8008)" stroke="#FBE19C" stroke-width="8.37455" stroke-linecap="round"/>
<path d="M120.627 113.33C131.933 110.026 169.195 83.6575 190.131 69.4433C188.341 64.9027 197.471 56.1728 202.945 64.1638C208.179 71.8051 198.847 78.4883 194.155 74.833C184.709 82.3287 152.335 104.334 132.233 126.093C104.327 156.301 92.6808 158.632 86.4462 159.793C83.6437 160.315 79.0892 160.317 75.5371 155.879C72.6955 152.329 73.3014 148.635 73.9595 147.233C83.0542 128.235 109.321 116.633 120.627 113.33Z" fill="#76B9E6"/>
<path d="M180.618 111.925C192.181 109.679 231.715 86.8589 253.873 74.6362C252.51 69.9498 262.406 62.0992 267.12 70.5609C271.627 78.6524 261.718 84.4464 257.383 80.374C247.286 86.9665 213.02 105.892 190.998 125.705C160.425 153.211 148.613 154.457 142.298 155.039C139.459 155.3 134.924 154.882 131.796 150.135C129.294 146.338 130.238 142.716 131.023 141.38C141.831 123.302 169.056 114.172 180.618 111.925Z" fill="#76B9E6"/>
</svg>
