<svg width="407" height="558" viewBox="0 0 407 558" fill="none" xmlns="http://www.w3.org/2000/svg">
<line x1="7" y1="-7" x2="419.193" y2="-7" transform="matrix(-0.52172 0.853117 0.853117 0.52172 232.352 193.826)" stroke="#FBE19C" stroke-width="14" stroke-linecap="round"/>
<path d="M358.75 72.8411L355.095 71.1358C306.963 159.302 176.407 202.016 168.193 203.269C114.071 222.52 103.455 220.745 100.357 220.571C99.3828 222.66 97.3986 225.549 97.3986 225.549C97.3986 225.549 106.935 225.548 112.33 224.887L156.572 288.127L170.177 209.917L196.769 201.98L272.51 257.666L253.675 171.313C262.251 168.194 282.958 154.883 292.239 148.617L365.856 182.967L336.928 104.62C340.575 102.253 352.996 82.4479 358.75 72.8411Z" fill="#E98035"/>
</svg>
