<svg width="394" height="539" viewBox="0 0 394 539" fill="none" xmlns="http://www.w3.org/2000/svg">
<line x1="5.79116" y1="-5.79116" x2="437.039" y2="-5.79116" transform="matrix(0.0671362 0.997635 0.997854 -0.0671138 182.359 95.9688)" stroke="#FBE19C" stroke-width="11.5823" stroke-linecap="round"/>
<path d="M223.989 227.936L187.552 123.25C187.682 107.49 218.136 83.9219 243.851 104.088C240.733 94.9333 270.629 65.1122 293.113 87.3204C278.039 59.9702 229.877 11.4017 157.814 35.9298C85.7511 60.4579 75.8315 128.796 79.8795 159.899C83.5438 145.293 101.731 122.6 129.141 143.131C136.11 126.712 155.75 106.675 182.436 120.277L219.608 229.427C228.192 258.725 271.021 264.578 266.213 213.564L261.991 215.002C265.329 257.086 232.143 251.879 223.989 227.936Z" fill="#FE7831"/>
</svg>
