<svg width="599" height="721" viewBox="0 0 599 721" fill="none" xmlns="http://www.w3.org/2000/svg">
<line x1="7" y1="-7" x2="548.536" y2="-7" transform="matrix(-0.732959 0.680272 0.680272 0.732959 414.195 220.154)" stroke="#FBE19C" stroke-width="14" stroke-linecap="round"/>
<path d="M328.799 218.431C351.392 218.461 434.22 190.068 480.434 175.223C479.593 165.898 501.115 154.766 506.87 172.431C512.374 189.323 491.587 196.58 484.928 187.317C463.491 196.007 392.016 219.01 343.261 248.194C275.577 288.708 252.883 286.703 240.781 285.472C235.341 284.918 226.957 282.46 222.819 272.372C219.508 264.302 222.619 257.833 224.588 255.607C251.593 225.558 306.206 218.4 328.799 218.431Z" fill="#76B9E6"/>
<path d="M387.119 263.788C409.057 263.651 489.275 235.471 534.04 220.716C533.155 211.668 553.971 200.7 559.69 217.81C565.158 234.172 545.027 241.371 538.493 232.426C517.742 241.022 448.508 263.885 401.382 292.581C335.957 332.42 313.907 330.64 302.146 329.533C296.86 329.035 288.702 326.711 284.608 316.946C281.334 309.134 284.307 302.829 286.203 300.653C312.204 271.277 365.181 263.924 387.119 263.788Z" fill="#76B9E6"/>
</svg>
