<svg width="235" height="660" viewBox="0 0 235 660" fill="none" xmlns="http://www.w3.org/2000/svg">
<g clip-path="url(#clip0_222_112)">
<line x1="116.867" y1="109.576" x2="217.557" y2="641.67" stroke="#FBE19C" stroke-width="14" stroke-linecap="round"/>
<path d="M114.853 153.863C153.668 163.827 221.668 159.138 221.668 101.989C221.668 68.0039 194.975 45.9777 164.669 36.692C159.843 30.3202 149.743 27.358 140.296 26.317C156.516 19.3513 174.276 20.2813 182.269 21.9804C166.859 10.023 134.99 16.9981 120.981 21.9804V0H112.226L111.35 23.7388C109.599 20.9491 103.496 17.1991 97.3418 15.8259C89.462 14.0674 78.1511 14.2263 75.4534 17.5843C73.9196 19.4934 71.8884 21.9709 70.2312 24.3439C69.2847 24.3906 68.3955 24.4804 67.5735 24.618C57.0671 26.3764 50.0628 29.0141 40.4319 43.0815C50.0628 40.2643 78.9555 27.9875 85.9598 35.8682C55.6142 42.629 17.668 60.8158 17.668 101.989C17.668 157.379 80.7066 159.724 114.853 153.863Z" fill="#EF5A32"/>
</g>
<defs>
<clipPath id="clip0_222_112">
<rect width="235" height="660" fill="white"/>
</clipPath>
</defs>
</svg>
