<svg width="2560" height="76" viewBox="0 0 2560 76" fill="none" xmlns="http://www.w3.org/2000/svg">
<path d="M32.5 76L4.35417 19L60.6458 19L32.5 76Z" fill="#EF5A32"/>
<path d="M86.5 76L58.3542 19L114.646 19L86.5 76Z" fill="#EF5A32"/>
<path d="M296.5 76L268.354 19L324.646 19L296.5 76Z" fill="#EF5A32"/>
<path d="M246.5 76L218.354 19L274.646 19L246.5 76Z" fill="#EF5A32"/>
<path d="M194.5 76L166.354 19L222.646 19L194.5 76Z" fill="#EF5A32"/>
<path d="M139.5 76L111.354 19L167.646 19L139.5 76Z" fill="#EF5A32"/>
<path d="M669.5 76L641.354 19L697.646 19L669.5 76Z" fill="#EF5A32"/>
<path d="M723.5 76L695.354 19L751.646 19L723.5 76Z" fill="#EF5A32"/>
<path d="M933.5 76L905.354 19L961.646 19L933.5 76Z" fill="#EF5A32"/>
<path d="M883.5 76L855.354 19L911.646 19L883.5 76Z" fill="#EF5A32"/>
<path d="M831.5 76L803.354 19L859.646 19L831.5 76Z" fill="#EF5A32"/>
<path d="M776.5 76L748.354 19L804.646 19L776.5 76Z" fill="#EF5A32"/>
<path d="M985.5 76L957.354 19L1013.65 19L985.5 76Z" fill="#EF5A32"/>
<path d="M1039.5 76L1011.35 19L1067.65 19L1039.5 76Z" fill="#EF5A32"/>
<path d="M1249.5 76L1221.35 19L1277.65 19L1249.5 76Z" fill="#EF5A32"/>
<path d="M1199.5 76L1171.35 19L1227.65 19L1199.5 76Z" fill="#EF5A32"/>
<path d="M1147.5 76L1119.35 19L1175.65 19L1147.5 76Z" fill="#EF5A32"/>
<path d="M1092.5 76L1064.35 19L1120.65 19L1092.5 76Z" fill="#EF5A32"/>
<path d="M353.5 76L325.354 19L381.646 19L353.5 76Z" fill="#EF5A32"/>
<path d="M407.5 76L379.354 19L435.646 19L407.5 76Z" fill="#EF5A32"/>
<path d="M617.5 76L589.354 19L645.646 19L617.5 76Z" fill="#EF5A32"/>
<path d="M567.5 76L539.354 19L595.646 19L567.5 76Z" fill="#EF5A32"/>
<path d="M515.5 76L487.354 19L543.646 19L515.5 76Z" fill="#EF5A32"/>
<path d="M460.5 76L432.354 19L488.646 19L460.5 76Z" fill="#EF5A32"/>
<rect y="10" width="1292" height="11" fill="#F9DB54"/>
<path d="M1300.5 76L1272.35 19L1328.65 19L1300.5 76Z" fill="#EF5A32"/>
<path d="M1354.5 76L1326.35 19L1382.65 19L1354.5 76Z" fill="#EF5A32"/>
<path d="M1564.5 76L1536.35 19L1592.65 19L1564.5 76Z" fill="#EF5A32"/>
<path d="M1514.5 76L1486.35 19L1542.65 19L1514.5 76Z" fill="#EF5A32"/>
<path d="M1462.5 76L1434.35 19L1490.65 19L1462.5 76Z" fill="#EF5A32"/>
<path d="M1407.5 76L1379.35 19L1435.65 19L1407.5 76Z" fill="#EF5A32"/>
<path d="M1937.5 76L1909.35 19L1965.65 19L1937.5 76Z" fill="#EF5A32"/>
<path d="M1991.5 76L1963.35 19L2019.65 19L1991.5 76Z" fill="#EF5A32"/>
<path d="M2201.5 76L2173.35 19L2229.65 19L2201.5 76Z" fill="#EF5A32"/>
<path d="M2151.5 76L2123.35 19L2179.65 19L2151.5 76Z" fill="#EF5A32"/>
<path d="M2099.5 76L2071.35 19L2127.65 19L2099.5 76Z" fill="#EF5A32"/>
<path d="M2044.5 76L2016.35 19L2072.65 19L2044.5 76Z" fill="#EF5A32"/>
<path d="M2253.5 76L2225.35 19L2281.65 19L2253.5 76Z" fill="#EF5A32"/>
<path d="M2307.5 76L2279.35 19L2335.65 19L2307.5 76Z" fill="#EF5A32"/>
<path d="M2517.5 76L2489.35 19L2545.65 19L2517.5 76Z" fill="#EF5A32"/>
<path d="M2467.5 76L2439.35 19L2495.65 19L2467.5 76Z" fill="#EF5A32"/>
<path d="M2415.5 76L2387.35 19L2443.65 19L2415.5 76Z" fill="#EF5A32"/>
<path d="M2360.5 76L2332.35 19L2388.65 19L2360.5 76Z" fill="#EF5A32"/>
<path d="M1621.5 76L1593.35 19L1649.65 19L1621.5 76Z" fill="#EF5A32"/>
<path d="M1675.5 76L1647.35 19L1703.65 19L1675.5 76Z" fill="#EF5A32"/>
<path d="M1885.5 76L1857.35 19L1913.65 19L1885.5 76Z" fill="#EF5A32"/>
<path d="M1835.5 76L1807.35 19L1863.65 19L1835.5 76Z" fill="#EF5A32"/>
<path d="M1783.5 76L1755.35 19L1811.65 19L1783.5 76Z" fill="#EF5A32"/>
<path d="M1728.5 76L1700.35 19L1756.65 19L1728.5 76Z" fill="#EF5A32"/>
<rect x="1268" y="10" width="1292" height="11" fill="#F9DB54"/>
</svg>
