<svg width="306" height="306" viewBox="0 0 306 306" fill="none" xmlns="http://www.w3.org/2000/svg">
<path d="M260.176 46.2445L244.431 116.068L305.736 154.762L245.012 192.055L261.826 262.252L191.693 245.168L154.167 305.749L115.709 244.296L45.8255 259.771L61.5701 189.948L0.265625 151.254L60.9898 113.961L44.1758 43.7635L114.308 60.8475L151.834 0.267334L190.292 61.7203L260.176 46.2445Z" fill="#A1C8AB"/>
<path fill-rule="evenodd" clip-rule="evenodd" d="M233.29 88.2876V214.676L146.697 190.444C146.153 192.472 145.753 194.168 145.415 195.599C144.107 201.142 143.736 202.712 139.599 204.223C135.814 204.223 116.818 200.131 111.208 197.571C106.003 195.195 107.738 185.217 110.261 180.941L89.4413 174.764L58.2109 187.118V138.178L89.4413 152.907L233.29 88.2876ZM128.716 185.217C111.013 181.416 110.261 192.344 124.93 196.145C141.777 200.511 146.418 189.018 128.716 185.217Z" fill="#F9DB54" stroke="#0C42BE" stroke-width="2" stroke-dasharray="11 11"/>
</svg>
