<svg width="246" height="304" viewBox="0 0 246 304" fill="none" xmlns="http://www.w3.org/2000/svg">
<path d="M194.585 0.268555C136.76 51.8674 32.3768 41.504 0.199219 37.1224C37.4568 77.1046 69.9839 231.994 50.7479 303.742C124.082 247.246 212.448 249.282 245.134 266.888C179.388 156.14 195.062 61.742 194.585 0.268555Z" fill="#FF9E00"/>
<path d="M140.702 228.516C118.786 217.498 72.9241 187.718 62.3298 157.594C45.6156 110.068 60.1095 72.3742 95.9314 59.7763C131.753 47.1784 162.031 79.4558 171.632 119.154C180.092 154.137 158.529 217.253 153.67 223.955L167.92 234.896C168.326 238.683 156.665 242.983 150.229 241.811C145.876 241.018 137.715 243.673 135.424 247.186L134.824 249.309C134.756 248.582 134.98 247.868 135.424 247.186L140.702 228.516Z" fill="#37B6D7"/>
<path d="M140.702 228.516C118.786 217.498 72.9241 187.718 62.3298 157.594C45.6156 110.068 60.1095 72.3742 95.9314 59.7763C131.753 47.1784 162.031 79.4558 171.632 119.154C180.092 154.137 158.529 217.253 153.67 223.955L167.92 234.896C168.326 238.683 156.665 242.983 150.229 241.811C145.032 240.864 134.406 244.832 134.824 249.309L140.702 228.516Z" stroke="#0C42BE" stroke-width="2" stroke-dasharray="11 11"/>
</svg>
