<svg width="277" height="277" viewBox="0 0 277 277" fill="none" xmlns="http://www.w3.org/2000/svg">
<path fill-rule="evenodd" clip-rule="evenodd" d="M192.51 0.0369667L0.0382547 83.6548L83.6561 276.126L276.128 192.508L192.51 0.0369667ZM138.834 134.067L110.593 215.225C104.273 233.787 78.5325 237.817 81.1123 205.188L77.8367 204.073C74.1182 243.625 107.34 239.096 113.991 216.382L142.801 131.762C163.498 121.223 178.737 136.762 184.146 149.494C205.404 133.581 219.516 151.18 222.362 162.505C225.495 138.391 217.785 85.4042 161.882 66.371C105.978 47.3378 68.6296 84.9839 56.9434 106.186C74.3792 88.9723 97.5751 112.1 95.1588 119.197C115.101 103.568 138.729 121.847 138.834 134.067Z" fill="#E0C5FF"/>
</svg>
