<svg width="255" height="295" viewBox="0 0 255 295" fill="none" xmlns="http://www.w3.org/2000/svg">
<path d="M104.38 279.353C101.079 285.318 92.7572 291.346 89.3346 290.469C81.2214 289.324 77.8997 282.708 80.542 279.062C83.1843 275.416 79.6963 268.303 74.564 267.815C69.4317 267.327 66.4339 256.738 70.5711 255.903C74.7083 255.069 66.2177 226.444 61.2542 228.108C56.2908 229.772 48.1444 208.762 54.1003 206.766C60.0563 204.769 51.7464 184.919 46.7802 184.928C41.814 184.936 37.6494 169.217 40.4582 166.067C43.2669 162.917 39.6012 148.686 33.9698 146.71C28.3384 144.733 24.6724 130.503 27.9805 128.842C31.2885 127.181 27.118 108.151 19.662 104.025C12.206 99.8992 14.6709 89.1352 14.5045 88.6388C14.3382 88.1425 21.9495 86.1433 10.0124 75.2374C-1.92473 64.3315 16.9279 53.0442 18.2587 57.0144C19.5895 60.9847 36.9641 56.8174 38.1121 50.3596C39.26 43.9018 53.9864 40.0696 57.9654 43.7049C61.9444 47.3401 73.1993 46.3281 75.8334 37.7155C78.4675 29.103 93.366 29.0784 95.6868 31.0608C98.0076 33.0432 107.779 35.8417 114.051 24.9051C119.069 16.1558 129.377 16.823 133.904 18.2503C136.445 19.7911 144.072 20.5839 154.254 11.4292C166.981 -0.0142741 177.44 18.0118 175.788 19.6699C174.135 21.3281 177.973 39.3652 184.594 39.3541C191.216 39.343 194.887 56.8839 190.916 58.2148C186.946 59.5458 190.118 75.5976 197.238 77.0755C204.359 78.5534 207.858 92.2871 202.895 93.9508C197.932 95.6145 199.451 113.325 207.564 114.47C215.678 115.615 215.539 131.672 213.886 133.33C212.234 134.988 212.262 151.542 219.876 151.198C227.49 150.855 229.839 169.391 227.03 172.541C224.221 175.691 227.385 186.776 232.354 188.423C236.329 189.741 237.448 199.23 237.511 203.81C236.689 207.398 237.067 215.663 245.153 220.02C255.26 225.465 237.076 240.394 235.908 235.265C234.741 230.135 212.24 237.125 215.062 242.252C217.885 247.379 199.521 253.534 197.194 248.242C194.868 242.949 173.523 248.446 173.37 256.227C173.218 264.008 153.689 266.689 151.532 263.548C149.375 260.406 133.159 264.737 133.664 269.537C134.168 274.337 120.102 276.843 118.277 274.694C116.453 272.545 108.506 271.897 104.38 279.353Z" fill="#F2F185"/>
<path fill-rule="evenodd" clip-rule="evenodd" d="M69.5077 143.034C62.2643 182.49 69.6339 257.322 153.309 229.275C238.163 200.832 199.254 138.736 169.461 109.53C170.995 80.5681 161.199 32.2905 94.7471 54.5652C29.8935 76.3041 50.7636 123.343 69.5077 143.034ZM147.758 85.0331C147.072 63.4641 109.708 72.9734 101.805 75.6222C73.9505 84.9591 66.7115 100.141 73.6911 109.86C78.2549 116.216 87.7137 121.162 114.105 112.315C144.383 102.166 148.051 94.2118 147.758 85.0331Z" fill="#FFF8E7"/>
</svg>
