<svg width="421" height="328" viewBox="0 0 421 328" fill="none" xmlns="http://www.w3.org/2000/svg">
<path d="M198.316 7.85161C201.952 -1.75167 215.489 -1.8858 219.315 7.64352C222.668 15.9938 233.972 17.2417 239.066 9.82374L240.935 7.10197C246.452 -0.932797 258.976 2.1152 260.183 11.7866C261.256 20.3761 271.618 24.1246 277.938 18.2094L282.728 13.7257C289.482 7.40471 300.429 13.0902 299.141 22.2504C297.983 30.4956 306.978 36.3423 314.043 31.9363L321.301 27.41C328.821 22.7198 337.926 30.4552 334.513 38.6347C331.407 46.0783 338.804 53.5838 346.292 50.5861L354.673 47.2307C362.669 44.0299 369.86 53.3003 364.771 60.2486C360.105 66.6204 365.811 75.3766 373.525 73.6803L381.396 71.9492C389.694 70.1246 394.989 80.5293 388.63 86.1633C382.773 91.3527 386.77 101.018 394.581 100.555L400.499 100.205C408.989 99.7017 412.421 110.95 405.095 115.272C398.339 119.258 400.624 129.56 408.432 130.315L411.427 130.605C420.023 131.437 421.587 143.316 413.498 146.343C406.051 149.131 406.712 159.872 414.405 161.883C422.866 164.095 422.653 176.271 414.074 177.967L412.719 178.235C404.981 179.764 403.767 190.324 410.957 193.569C418.755 197.088 416.484 208.722 407.934 209.05L403.396 209.224C395.578 209.524 392.635 219.599 399.062 224.06C406.033 228.898 401.888 239.839 393.461 238.845L386.394 238.011C378.598 237.091 373.93 246.434 379.348 252.115C385.239 258.293 379.198 268.296 370.987 265.956L362.611 263.569C354.946 261.385 348.552 269.691 352.624 276.542C357.08 284.038 349.102 292.758 341.24 288.985L333.142 285.098C325.763 281.557 317.683 288.448 320.017 296.294C322.594 304.959 312.686 311.938 305.395 306.592L299.153 302.016C292.31 296.999 282.69 302.043 282.924 310.525C283.186 320.01 271.492 324.684 265.144 317.631L261.759 313.87C255.852 307.306 245.005 310.064 242.95 318.652C240.62 328.39 227.53 330.165 222.691 321.399L222.029 320.199C217.608 312.19 206.058 312.305 201.796 320.399L201.158 321.613C196.494 330.472 183.371 328.957 180.849 319.268C178.624 310.722 167.725 308.179 161.948 314.859L158.639 318.686C152.432 325.863 140.647 321.422 140.721 311.934C140.787 303.449 131.069 298.597 124.327 303.748L118.176 308.448C110.993 313.936 100.949 307.155 103.354 298.441C105.532 290.551 97.3168 283.82 90.0092 287.508L81.9898 291.554C74.2044 295.482 66.055 286.922 70.3615 279.339C74.2973 272.409 67.74 264.231 60.1201 266.566L51.7924 269.119C43.6296 271.621 37.3911 261.74 43.1593 255.446C48.4628 249.659 43.611 240.41 35.8351 241.484L28.7854 242.458C20.3802 243.619 16.0196 232.762 22.8928 227.787C29.2302 223.2 26.0883 213.186 18.2662 213.041L13.7253 212.957C5.17081 212.798 2.66927 201.211 10.3964 197.538C17.5198 194.151 16.0971 183.617 8.33058 182.242L6.97087 182.001C-1.64077 180.476 -2.09487 168.306 6.32094 165.927C13.9728 163.764 14.42 153.011 6.91916 150.372C-1.22737 147.505 0.100325 135.598 8.67822 134.596L11.6669 134.247C19.4584 133.337 21.5389 122.991 14.705 119.14C7.29534 114.964 10.5032 103.65 19.0019 103.985L24.9251 104.218C32.7442 104.526 36.5487 94.7834 30.5901 89.7111C24.1211 84.2042 29.209 73.6966 37.5408 75.3565L45.4449 76.9312C53.1905 78.4743 58.7224 69.6068 53.9307 63.3287C48.7057 56.4826 55.7117 47.0715 63.7688 50.1132L72.2153 53.3019C79.7612 56.1506 87.0081 48.5001 83.7551 41.1195C80.1804 33.0092 89.1304 25.0949 96.7423 29.6351L104.088 34.0167C111.239 38.2819 120.116 32.258 118.795 24.0374C117.326 14.9046 128.158 9.00328 135.036 15.1892L139.914 19.5771C146.35 25.3659 156.635 21.4128 157.538 12.8037C158.554 3.11027 171.015 -0.185278 176.69 7.73859L178.612 10.4228C183.852 17.7383 195.129 16.2667 198.316 7.85161Z" fill="#BBB9B9"/>
<path d="M68.9062 178.164C68.9062 271.591 167.953 269.61 217.477 256.941C336.333 277.395 355.912 212.945 350.844 178.164C345.316 124.54 286.349 100.539 257.556 95.2415C262.531 85.8436 300.63 97.7753 319.057 104.916C308.001 82.803 287.27 78.6569 278.287 79.3479C268.336 56.6823 235.904 68.5219 220.932 77.2748L219.55 46.1787H207.111V75.2013C163.438 58.6172 133.632 68.2912 124.188 75.2013C151.276 71.8844 173.251 78.4261 180.852 82.1115C161.504 82.1115 149.756 92.2466 146.301 97.3141C93.2303 108.37 72.5917 155.821 68.9062 178.164Z" fill="#EF5A32" stroke="#0C42BE" stroke-width="2.91" stroke-dasharray="16 16"/>
</svg>
