<svg width="295" height="295" viewBox="0 0 295 295" fill="none" xmlns="http://www.w3.org/2000/svg">
<rect y="106.594" width="216.443" height="216.443" transform="rotate(-29.5038 0 106.594)" fill="#E0C5FF"/>
<path d="M127.636 229.586L147.822 143.284C146.393 130.761 120.179 114.568 101.415 132.757C103.126 125.216 76.8305 104.003 60.8086 123.547C70.5014 100.535 104.737 57.8789 164.139 71.353C223.54 84.8272 237.181 138.343 236.576 163.416C232.432 152.108 216.052 135.583 195.97 154.206C189.044 141.731 171.731 127.441 151.642 140.491L131.247 230.405C126.882 254.423 93.296 262.663 92.8307 221.691L96.3112 222.481C97.1954 256.228 123.162 249.309 127.636 229.586Z" fill="#FE7831"/>
<path d="M147.822 143.284L127.636 229.586C123.162 249.309 97.1954 256.228 96.3112 222.481L92.8307 221.691C93.296 262.663 126.882 254.423 131.247 230.405L151.642 140.491M147.822 143.284C146.393 130.761 120.179 114.568 101.415 132.757C103.126 125.216 76.8305 104.003 60.8086 123.547C70.5014 100.535 104.737 57.8789 164.139 71.353C223.54 84.8272 237.181 138.343 236.576 163.416C232.432 152.108 216.052 135.583 195.97 154.206C189.044 141.731 171.731 127.441 151.642 140.491M147.822 143.284C149.105 142.24 150.379 141.312 151.642 140.491" stroke="#0C42BE" stroke-width="2" stroke-dasharray="11 11"/>
</svg>
