<svg width="373" height="453" viewBox="0 0 373 453" fill="none" xmlns="http://www.w3.org/2000/svg">
<path d="M121.993 433.276C115.485 442.151 100.926 450.099 95.625 447.994C82.8689 444.498 78.9053 433.224 83.8831 427.927C88.8609 422.63 84.7329 410.527 76.6151 408.694C68.4972 406.862 65.8664 389.292 72.6619 388.803C79.4574 388.314 71.7261 340.742 63.4378 342.389C55.1496 344.036 46.4096 308.727 56.3552 306.75C66.3007 304.774 57.0615 271.287 49.1079 270.283C41.1543 269.279 37.7061 243.257 42.8488 238.788C47.9914 234.32 45.037 210.783 36.425 206.465C27.8129 202.146 24.8582 178.61 30.4953 176.628C36.1323 174.646 33.3529 143.321 22.2596 135.187C11.1663 127.053 17.3182 110.323 17.1535 109.494C16.9888 108.665 29.5856 107.023 12.7061 87.1156C-4.1735 67.2077 28.3256 52.9966 29.6431 59.6264C30.9607 66.2561 59.6345 63.1429 62.7955 53.0378C65.9565 42.9328 90.3214 39.8134 95.9479 46.4493C101.574 53.0851 119.803 53.7703 125.785 40.5196C131.767 27.2689 155.627 30.2814 158.937 33.931C162.247 37.5807 177.32 44.0634 189.603 27.8366C199.43 14.8552 215.799 18.0354 222.756 21.2481C226.508 24.2357 238.559 27.0676 256.737 14.4948C279.46 -1.2211 292.514 29.7848 289.528 32.1012C286.543 34.4177 288.992 64.0849 299.597 65.4236C310.202 66.7623 312.487 95.6006 305.856 96.9184C299.226 98.2361 301.016 124.588 312.115 128.413C323.214 132.238 326.004 154.946 317.715 156.593C309.427 158.24 308.232 186.908 320.989 190.404C333.745 193.9 330.234 219.582 327.248 221.899C324.262 224.215 320.915 250.727 333.178 251.736C345.44 252.745 345.403 282.906 340.26 287.375C335.117 291.843 337.912 310.241 345.531 313.897C351.626 316.821 351.475 332.244 350.637 339.59C348.587 345.166 347.499 358.478 359.553 367.11C374.62 377.901 342.446 398.079 341.627 389.627C340.809 381.174 303.348 387.757 306.817 396.545C310.287 405.333 279.621 411.426 276.98 402.475C274.34 393.523 239.035 397.953 237.197 410.381C235.359 422.808 203.54 423.1 200.73 417.628C197.919 412.157 171.068 415.769 170.893 423.558C170.718 431.347 147.681 432.479 145.2 428.664C142.718 424.849 130.126 422.183 121.993 433.276Z" fill="#F2F185"/>
<path fill-rule="evenodd" clip-rule="evenodd" d="M94.0774 207.858C74.3966 269.551 70.8667 390.883 210.593 363.114C352.287 334.955 302.707 227.556 260.985 174.688C269.375 128.629 263.58 49.3201 152.614 71.3731C44.3173 92.8957 68.0982 172.49 94.0774 207.858ZM231.254 131.018C234.573 96.3411 172.798 103.913 159.602 106.535C113.088 115.779 98.3871 138.605 107.572 155.598C113.577 166.709 127.709 176.566 171.779 167.808C222.34 157.76 229.841 145.775 231.254 131.018Z" fill="#A5A2DB" stroke="#0C42BE" stroke-width="2.9092" stroke-dasharray="16 16"/>
</svg>
