<svg width="227" height="293" viewBox="0 0 227 293" fill="none" xmlns="http://www.w3.org/2000/svg">
<path fill-rule="evenodd" clip-rule="evenodd" d="M0 20.3562C32.0024 27.5345 136.148 46.9462 198.777 0C198.027 9.65635 196.812 20.0851 195.511 31.2549C188.471 91.687 178.904 173.809 226.698 272.643C195.322 252.114 106.577 242.459 27.9205 292.999C53.4519 222.456 34.0505 63.7957 0 20.3562ZM52.1516 146.93C60.2199 178.155 103.807 212.069 124.912 225.042L117.994 243.376C117.489 244.024 117.202 244.723 117.208 245.46L117.994 243.376C120.602 240.037 129.043 238.068 133.355 239.241C139.73 240.974 151.835 237.65 151.752 233.805L138.354 221.569C143.821 215.243 170.95 153.587 165.448 117.656C159.203 76.8826 131.513 41.797 94.3823 51.3911C57.2514 60.9851 39.4226 97.6684 52.1516 146.93Z" fill="#FF9E00"/>
</svg>
