<svg width="204" height="158" viewBox="0 0 204 158" fill="none" xmlns="http://www.w3.org/2000/svg">
<path d="M106.815 153.863C68 163.827 0 159.138 0 101.989C0 68.0039 26.6926 45.9777 56.9988 36.692C61.8246 30.3202 71.9248 27.358 81.372 26.317C65.1521 19.3513 47.3916 20.2813 39.3991 21.9804C54.8086 10.023 86.6781 16.9981 100.687 21.9804V0H109.442L110.318 23.7388C112.069 20.9491 118.172 17.1991 124.326 15.8259C132.206 14.0674 143.517 14.2263 146.215 17.5843C147.748 19.4934 149.78 21.9709 151.437 24.3439C152.383 24.3906 153.272 24.4804 154.094 24.618C164.601 26.3764 171.605 29.0141 181.236 43.0815C171.605 40.2643 142.712 27.9875 135.708 35.8682C166.054 42.629 204 60.8158 204 101.989C204 157.379 140.961 159.724 106.815 153.863Z" fill="#EF5A32"/>
</svg>
