<svg width="265" height="246" viewBox="0 0 265 246" fill="none" xmlns="http://www.w3.org/2000/svg">
<g clip-path="url(#clip0_196_599)">
<path d="M182.623 179.39C115.407 239.562 38.5017 263.301 10.8515 232.414C-16.7986 201.526 15.2764 127.708 82.4931 67.5363C149.71 7.3647 226.615 -16.3746 254.265 14.513C281.915 45.4006 249.84 119.219 182.623 179.39Z" fill="#FFB784"/>
<path d="M66.0784 144.573C79.6897 137.298 120.388 93.4668 143.418 69.6108C139.901 64.2689 149.265 50.6192 158.432 59.3961C167.198 67.789 157.027 78.8679 150.027 75.4412C139.927 87.5929 104.323 124.515 84.393 157.822C56.7237 204.063 42.4144 210.182 34.731 213.347C31.2772 214.77 25.4369 215.997 19.6887 211.259C15.0902 207.47 14.8746 202.571 15.3417 200.595C21.8991 173.787 52.467 151.848 66.0784 144.573Z" fill="#FFF8E7"/>
<path d="M142.632 126.65C156.857 120.661 201.424 80.7698 226.556 59.1393C223.547 53.4959 234.129 40.7679 242.448 50.3528C250.403 59.5184 239.253 69.612 232.599 65.5545C221.422 76.7228 182.565 110.204 159.647 141.531C127.831 185.023 113.018 189.796 105.076 192.239C101.506 193.337 95.5767 194.02 90.2899 188.773C86.0604 184.576 86.2976 179.678 86.9449 177.753C95.9467 151.665 128.408 132.638 142.632 126.65Z" fill="#FFF8E7"/>
</g>
<defs>
<clipPath id="clip0_196_599">
<rect width="265" height="246" fill="white"/>
</clipPath>
</defs>
</svg>
