<svg width="421" height="327" viewBox="0 0 421 327" fill="none" xmlns="http://www.w3.org/2000/svg">
<path d="M198.062 7.27934C201.698 -2.32393 215.235 -2.45807 219.061 7.07126C222.414 15.4216 233.719 16.6694 238.812 9.25147L240.681 6.5297C246.198 -1.50506 258.722 1.54293 259.93 11.2143C261.002 19.8038 271.364 23.5523 277.684 17.6371L282.474 13.1535C289.228 6.83244 300.175 12.518 298.888 21.6781C297.729 29.9233 306.724 35.7701 313.789 31.364L321.047 26.8377C328.567 22.1476 337.672 29.883 334.259 38.0625C331.153 45.5061 338.55 53.0115 346.038 50.0138L354.419 46.6584C362.415 43.4576 369.606 52.7281 364.517 59.6763C359.851 66.0482 365.558 74.8043 373.271 73.108L381.142 71.377C389.44 69.5523 394.735 79.9571 388.376 85.591C382.519 90.7804 386.516 100.446 394.328 99.9829L400.245 99.6324C408.735 99.1295 412.167 110.378 404.841 114.699C398.085 118.686 400.37 128.988 408.178 129.743L411.173 130.033C419.769 130.865 421.333 142.743 413.245 145.771C405.797 148.559 406.458 159.3 414.151 161.311C422.612 163.523 422.399 175.699 413.82 177.395L412.465 177.662C404.727 179.191 403.514 189.752 410.703 192.996C418.501 196.516 416.23 208.15 407.68 208.478L403.142 208.652C395.324 208.952 392.381 219.026 398.808 223.487C405.779 228.326 401.634 239.267 393.207 238.272L386.14 237.438C378.344 236.519 373.676 245.862 379.094 251.543C384.985 257.721 378.944 267.723 370.733 265.384L362.357 262.997C354.692 260.813 348.298 269.119 352.37 275.97C356.826 283.466 348.848 292.186 340.986 288.413L332.888 284.526C325.509 280.984 317.429 287.876 319.763 295.721C322.34 304.387 312.432 311.365 305.142 306.02L298.899 301.444C292.056 296.427 282.436 301.471 282.67 309.953C282.932 319.437 271.238 324.111 264.89 317.059L261.505 313.298C255.598 306.734 244.751 309.492 242.696 318.08C240.366 327.818 227.276 329.592 222.438 320.827L221.775 319.627C217.354 311.618 205.804 311.732 201.542 319.827L200.904 321.04C196.24 329.9 183.117 328.385 180.595 318.696C178.37 310.15 167.471 307.607 161.694 314.287L158.385 318.114C152.178 325.291 140.393 320.85 140.467 311.362C140.534 302.877 130.815 298.024 124.073 303.176L117.923 307.875C110.739 313.364 100.695 306.583 103.1 297.868C105.278 289.978 97.0629 283.248 89.7553 286.935L81.7359 290.982C73.9505 294.91 65.8011 286.35 70.1076 278.767C74.0434 271.837 67.486 263.658 59.8662 265.994L51.5385 268.546C43.3757 271.048 37.1372 261.168 42.9054 254.874C48.2089 249.087 43.3571 239.838 35.5812 240.912L28.5315 241.886C20.1263 243.047 15.7656 232.19 22.6389 227.215C28.9763 222.627 25.8344 212.613 18.0122 212.468L13.4714 212.384C4.91691 212.226 2.41537 200.639 10.1425 196.965C17.2659 193.579 15.8432 183.045 8.07668 181.669L6.71697 181.429C-1.89467 179.903 -2.34877 167.734 6.06704 165.355C13.7189 163.191 14.1661 152.439 6.66526 149.8C-1.48128 146.933 -0.153582 135.026 8.42431 134.024L11.413 133.675C19.2044 132.765 21.285 122.419 14.4511 118.568C7.04143 114.392 10.2492 103.078 18.748 103.413L24.6712 103.646C32.4903 103.954 36.2948 94.2111 30.3362 89.1388C23.8672 83.632 28.9551 73.1243 37.2869 74.7842L45.191 76.3589C52.9366 77.902 58.4685 69.0346 53.6768 62.7564C48.4518 55.9104 55.4577 46.4992 63.5149 49.541L71.9614 52.7296C79.5073 55.5784 86.7542 47.9278 83.5012 40.5472C79.9265 32.437 88.8765 24.5227 96.4883 29.0629L103.834 33.4445C110.985 37.7096 119.862 31.6858 118.541 23.4652C117.072 14.3323 127.905 8.43101 134.782 14.617L139.66 19.0048C146.096 24.7936 156.382 20.8405 157.284 12.2314C158.3 2.53801 170.761 -0.757544 176.436 7.16632L178.358 9.85052C183.598 17.1661 194.875 15.6944 198.062 7.27934Z" fill="#BBB9B9"/>
<path d="M68.6523 177.592C68.6523 271.018 167.699 269.037 217.223 256.369C336.079 276.823 355.658 212.373 350.591 177.592C345.062 123.968 286.095 99.9668 257.302 94.6692C262.278 85.2713 300.376 97.203 318.803 104.344C307.747 82.2308 287.016 78.0846 278.033 78.7757C268.082 56.11 235.65 67.9496 220.678 76.7026L219.296 45.6064H206.857V74.629C163.185 58.0449 133.378 67.719 123.934 74.629C151.023 71.3121 172.997 77.8538 180.598 81.5393C161.25 81.5393 149.502 91.6743 146.047 96.7418C92.9764 107.798 72.3378 155.249 68.6523 177.592Z" fill="#FFF8E7"/>
</svg>
