<svg width="290" height="290" viewBox="0 0 290 290" fill="none" xmlns="http://www.w3.org/2000/svg">
<path fill-rule="evenodd" clip-rule="evenodd" d="M231.905 106.009L246.154 43.6722L183.762 57.6804L154.427 0L116.405 51.018L57.2138 24.9838L61.3516 89.1396L0 106.933L44.362 154.208L9.5569 207.504L73.3856 215.776L81.4128 279.636L134.842 245.037L181.945 289.58L199.975 228.298L264.115 232.682L238.308 173.391L289.472 135.566L231.905 106.009ZM220.2 207.221V85.2208L81.346 147.597L51.2 133.379V180.619L81.346 168.695L101.443 174.657C99.0072 178.785 97.3324 188.416 102.357 190.71C107.772 193.181 126.108 197.131 129.762 197.131C133.755 195.673 134.113 194.156 135.376 188.806L135.376 188.806C135.702 187.424 136.089 185.787 136.614 183.83L220.2 207.221ZM119.257 178.785C102.169 175.116 101.443 185.664 115.603 189.334C131.865 193.548 136.345 182.454 119.257 178.785Z" fill="#A1C8AB"/>
</svg>
