<svg width="282" height="206" viewBox="0 0 282 206" fill="none" xmlns="http://www.w3.org/2000/svg">
<path d="M63.0612 120.106C79.6885 111.215 129.405 57.6477 157.538 28.4928C153.242 21.9642 164.68 5.28267 175.879 16.0091C186.587 26.2662 174.162 39.806 165.612 35.6182C153.274 50.469 109.781 95.592 85.4339 136.298C51.6337 192.81 34.1539 200.288 24.768 204.156C20.549 205.895 13.4146 207.394 6.39271 201.605C0.775217 196.974 0.511908 190.986 1.08244 188.572C9.09288 155.81 46.4339 128.997 63.0612 120.106Z" fill="#76B9E6"/>
<path d="M156.579 98.2001C173.955 90.8812 228.398 42.1293 259.098 15.6942C255.422 8.79717 268.349 -6.75797 278.511 4.95602C288.229 16.1574 274.608 28.4931 266.48 23.5343C252.826 37.1834 205.359 78.1011 177.363 116.388C138.498 169.54 120.403 175.373 110.701 178.359C106.339 179.701 99.097 180.536 92.6388 174.123C87.4722 168.993 87.7619 163.007 88.5526 160.655C99.549 128.772 139.203 105.519 156.579 98.2001Z" fill="#76B9E6"/>
</svg>
