<svg width="250" height="243" viewBox="0 0 250 243" fill="none" xmlns="http://www.w3.org/2000/svg">
<path d="M175.193 173.613C112.469 234.041 39.1101 259.661 11.3422 230.838C-16.4257 202.015 11.912 129.663 74.6362 69.2351C137.36 8.80733 210.719 -16.8132 238.487 12.01C266.255 40.8332 237.917 113.185 175.193 173.613Z" fill="#FFB784"/>
<path d="M61.5202 144.14C74.3952 136.64 112.113 92.914 133.488 69.0843C129.907 64.0547 138.458 50.5548 147.613 58.6988C156.367 66.4864 146.945 77.5347 140.071 74.4759C130.756 86.5565 97.7104 123.436 79.6581 156.275C54.5966 201.865 41.0073 208.274 33.7063 211.6C30.4244 213.094 24.8331 214.484 19.1199 210.117C14.5493 206.623 14.1683 201.904 14.5491 199.982C19.9286 173.886 48.6451 151.639 61.5202 144.14Z" fill="#76B9E6" stroke="#0C42BE" stroke-width="1.56459" stroke-dasharray="8.61 8.61"/>
<path d="M134.746 124.141C148.258 117.861 189.848 77.7998 213.33 56.0431C210.228 50.7046 219.988 38.0509 228.352 47.0045C236.351 55.5663 225.95 65.6985 219.387 62.0188C208.998 73.1889 172.692 106.864 151.688 137.898C122.529 180.982 108.406 186.111 100.829 188.749C97.4237 189.934 91.728 190.803 86.442 185.927C82.2131 182.027 82.2689 177.293 82.8254 175.413C90.5886 149.925 121.234 130.422 134.746 124.141Z" fill="#76B9E6" stroke="#0C42BE" stroke-width="1.56459" stroke-dasharray="8.61 8.61"/>
</svg>
