<svg width="304" height="231" viewBox="0 0 304 231" fill="none" xmlns="http://www.w3.org/2000/svg">
<path d="M88.2997 21.6764C134.644 91.7533 224.728 119.866 267.925 132.795C318.326 143.922 315.854 233.751 257.954 230.534C85.3702 220.945 18.7823 96.6207 2.43731 58.2789C-12.0099 24.389 54.6511 -29.2036 88.2997 21.6764Z" fill="#F99AD1"/>
<path d="M57.6599 20.7802L60.8795 19.4077C100.056 97.2822 212.048 138.137 219.136 139.463C265.518 157.739 274.777 156.509 277.469 156.449C278.253 158.289 279.89 160.852 279.89 160.852C279.89 160.852 271.618 160.574 266.958 159.842L226.741 213.404L217.221 145.172L194.388 137.512L127.071 183.603L145.925 109.254C138.577 106.298 121.006 94.1493 113.138 88.4442L48.2852 116.091L75.6603 48.9801C72.5656 46.8208 62.3705 29.2805 57.6599 20.7802Z" fill="#E98035"/>
<path d="M217.221 145.172L194.388 137.512L127.071 183.603L145.925 109.254C138.577 106.298 121.006 94.1493 113.138 88.4442L48.2852 116.091L75.6603 48.9801C72.5656 46.8208 62.3705 29.2805 57.6599 20.7802L60.8795 19.4077C100.056 97.2822 212.048 138.137 219.136 139.463M217.221 145.172L219.136 139.463M217.221 145.172L226.741 213.404L266.958 159.842C271.618 160.574 279.89 160.852 279.89 160.852C279.89 160.852 278.253 158.289 277.469 156.449C274.777 156.509 265.518 157.739 219.136 139.463" stroke="#0C42BE" stroke-width="2" stroke-dasharray="11 11"/>
</svg>
