<svg width="292" height="247" viewBox="0 0 292 247" fill="none" xmlns="http://www.w3.org/2000/svg">
<path fill-rule="evenodd" clip-rule="evenodd" d="M260.065 149.505C218.077 133.067 130.611 97.6411 90.1862 23.9903C60.8359 -29.4845 -10.0067 18.4446 1.60462 53.4078C14.7412 92.9639 70.8794 222.343 242.091 246.092C299.53 254.06 309.38 164.738 260.065 149.505ZM63.0407 19.474L59.7191 20.5771C63.7148 29.4359 72.4329 47.7552 75.3395 50.1618L42.5381 114.794L109.445 92.5742C116.817 98.907 133.33 112.46 140.409 116.009L115.505 188.556L186.385 148.158L208.51 157.669L212.387 226.453L256.872 176.38C261.456 177.492 269.677 178.45 269.677 178.45C269.677 178.45 268.257 175.761 267.627 173.862C267.513 173.856 267.387 173.85 267.246 173.843C264.083 173.7 253.711 173.23 210.888 152.138C203.934 150.233 95.6805 100.307 63.0407 19.474Z" fill="#F99AD1"/>
</svg>
