<svg width="44" height="76" viewBox="0 0 44 76" fill="none" xmlns="http://www.w3.org/2000/svg">
<path d="M37 32.9089C34.1883 32.9089 31.9089 35.1883 31.9089 38C31.9089 40.8117 34.1883 43.0911 37 43.0911V32.9089ZM42.0545 41.5999C44.0427 39.6118 44.0427 36.3882 42.0545 34.4001L9.65502 2.00052C7.66682 0.0123253 4.44332 0.0123253 2.45512 2.00052C0.466923 3.98872 0.466923 7.21222 2.45512 9.20042L31.2547 38L2.45512 66.7996C0.466923 68.7878 0.466923 72.0113 2.45512 73.9995C4.44332 75.9877 7.66682 75.9877 9.65502 73.9995L42.0545 41.5999ZM37 43.0911H38.4546V32.9089H37V43.0911Z" fill="#0C42BE"/>
</svg>
