<svg width="58" height="55" viewBox="0 0 58 55" fill="none" xmlns="http://www.w3.org/2000/svg">
<rect width="58" height="55" rx="4" fill="#0C42BE"/>
<rect x="5" y="5" width="48.6727" height="46.1552" rx="3.35674" fill="#FFF8E7"/>
<path d="M33.6472 10.6246C49.147 17.625 50.3136 30.125 47.647 34.125C45.1472 37.1246 42.7078 27.7662 41.147 30.125C38.5 34.125 45.5 37.5 42.147 43.625C39.9334 47.6685 27.6472 48.625 17.6472 41.125C7.64716 33.625 8.14716 20.1246 15.1472 13.1246C20.7472 7.52459 30.1478 8.62504 33.6472 10.6246Z" fill="#0C42BE"/>
<circle cx="25.5" cy="35.5" r="3.5" fill="#FFF8E7"/>
<circle cx="21.5" cy="17.5" r="3.5" fill="#FFF8E7"/>
<circle cx="17.5" cy="27.5" r="3.5" fill="#FFF8E7"/>
<circle cx="31.5" cy="16.5" r="3.5" fill="#FFF8E7"/>
</svg>
