<svg width="67" height="67" viewBox="0 0 67 67" fill="none" xmlns="http://www.w3.org/2000/svg">
<path d="M65.6098 16.0696L31.2716 49.8542L7.73677 59.3848L17.4864 37.4966L52.8786 1.3457C54.5021 1.53818 56.576 2.04141 58.5914 2.95564C60.597 3.86543 62.5444 5.18221 63.9321 7.00477C65.6188 9.22005 66.4783 12.1825 65.6098 16.0696Z" fill="#FFE38F"/>
<path d="M2.95312 64.3457L16.5545 36.5498C16.5545 36.5498 23.6508 37.5308 26.8426 40.7175C31.3469 45.2148 32.7614 50.6099 32.7614 50.6099L2.95312 64.3457Z" fill="#F4C639"/>
<path d="M5.59923 61.9751L12.5449 47.7515L21.0618 54.6181L5.59923 61.9751Z" fill="black"/>
<path d="M31.2716 49.8542L65.6098 16.0696C66.4783 12.1825 65.6188 9.22005 63.9321 7.00477M31.2716 49.8542L7.73677 59.3848L17.4864 37.4966M31.2716 49.8542C30.8586 47.2675 29.7937 45.1642 28.3983 43.4734M17.4864 37.4966L52.8786 1.3457C54.5021 1.53818 56.576 2.04141 58.5914 2.95564M17.4864 37.4966C18.9589 37.7075 21.0149 38.2792 23.0975 39.3348M23.0975 39.3348L58.5914 2.95564M23.0975 39.3348C24.9797 40.2888 26.8837 41.6381 28.3983 43.4734M58.5914 2.95564C60.597 3.86543 62.5444 5.18221 63.9321 7.00477M28.3983 43.4734L63.9321 7.00477M2.95312 64.3457L16.5545 36.5498C16.5545 36.5498 23.6508 37.5308 26.8426 40.7175C31.3469 45.2148 32.7614 50.6099 32.7614 50.6099L2.95312 64.3457ZM12.5449 47.7515L5.59923 61.9751L21.0618 54.6181L12.5449 47.7515Z" stroke="black" stroke-width="2"/>
</svg>
