<svg width="63" height="67" viewBox="0 0 63 67" fill="none" xmlns="http://www.w3.org/2000/svg">
<path d="M41.3317 10.5856L38.59 23.7458C40.9661 21.3697 45.9377 16.4712 46.815 15.8863C47.9117 15.1552 51.2018 14.7896 55.5885 16.2519C59.9752 17.7141 63.2652 22.4664 61.4374 29.0465C59.6096 35.6265 55.0401 36.1749 50.2879 35.261C46.486 34.5299 42.733 31.5444 41.3317 30.1431L34.5688 34.8954L32.9238 37.6371L28.7198 32.3365L30.7304 22.4664C26.4046 21.7352 18.1552 18.1162 19.7636 9.48897C21.7742 -1.29505 33.1066 1.26387 36.0311 2.90889C38.3706 4.2249 40.5396 8.57507 41.3317 10.5856Z" fill="#3A53A7" stroke="#CEB99C"/>
<path d="M35.5104 11.277C35.5104 14.4621 33.0875 16.9915 30.1615 16.9915C27.2354 16.9915 24.8125 14.4621 24.8125 11.277C24.8125 8.09199 27.2354 5.5625 30.1615 5.5625C33.0875 5.5625 35.5104 8.09199 35.5104 11.277Z" fill="#FFF8E7" stroke="#CEB99C"/>
<circle cx="52.459" cy="26.2656" r="6.08008" fill="#FFF8E7" stroke="#CEB99C"/>
<path d="M31.0365 32.2335C31.4751 31.21 32.6815 31.3196 33.2298 31.5024C33.4735 31.7461 33.9975 32.3432 34.1437 32.7819C34.3265 33.3302 33.7782 33.8785 32.6815 34.2441C31.5848 34.6097 30.4881 33.513 31.0365 32.2335Z" fill="#FFDE3B" stroke="#CEB99C" stroke-width="0.5"/>
<path d="M14.4414 66.1104L28.881 33.21L32.7194 37.7795C31.9883 40.1556 30.2336 46.9185 26.8704 54.9608C23.5073 63.0031 17.1831 65.7448 14.4414 66.1104Z" fill="#CEB99C" stroke="#CEB99C"/>
<path d="M32.7156 37.5753L28.7117 32.3538C23.604 34.083 3.83151 43.6862 2.02492 54.1771L32.7156 37.5753Z" fill="#CEB99C" stroke="#CEB99C"/>
</svg>
