<svg width="172" height="64" viewBox="0 0 172 64" fill="none" xmlns="http://www.w3.org/2000/svg">
<path d="M131.005 11.1539C85.0049 36.7539 55.0051 19.1538 39.5052 11.1539C14.5048 -1.74939 -19.9159 8.15381 14.5052 38.6538C66.2309 84.4872 136.505 56.6537 156.005 38.6538C172.64 23.2986 187.607 -20.3462 131.005 11.1539Z" fill="#C70005"/>
<path d="M125.466 19.598C85.4504 38.9778 59.3533 25.6541 45.8698 19.598C24.1218 9.82997 -5.8211 17.3269 24.1221 40.4161C69.1187 75.1129 130.251 54.0424 147.214 40.4161C161.685 28.7919 174.704 -4.24818 125.466 19.598Z" fill="white"/>
<path d="M9.50391 17.6543C34.5039 39.9876 99.7039 69.7543 160.504 10.1543" stroke="#C70005" stroke-width="4"/>
<path d="M61.0039 34.1543L58.8388 41.6543H63.169L61.0039 34.1543Z" fill="#C70005"/>
</svg>
